<?xml version="1.0" encoding="iso-8859-1"?>
<!-- Uploaded to: SVG Repo, www.svgrepo.com, Generator: SVG Repo Mixer Tools -->
<svg version="1.1" id="Layer_1" xmlns="http://www.w3.org/2000/svg" xmlns:xlink="http://www.w3.org/1999/xlink" 
	 viewBox="0 0 512 512" xml:space="preserve">
<path style="fill:#891C00;" d="M423.602,248.286V12.879C423.602,5.795,429.397,0,436.48,0l0,0c7.083,0,12.879,5.795,12.879,12.879
	V243.4L423.602,248.286z"/>
<rect x="423.599" y="211.374" style="fill:#781900;" width="25.757" height="29.998"/>
<path style="fill:#891C00;" d="M375.365,512c-1.844,0-3.695-0.659-5.17-1.994L122.443,285.517c-3.152-2.856-3.392-7.727-0.535-10.88
	c2.855-3.152,7.726-3.392,10.88-0.535l247.751,224.489c3.152,2.856,3.392,7.727,0.535,10.88
	C379.555,511.148,377.464,512,375.365,512z"/>
<path style="fill:#FF5023;" d="M136.634,512c-2.104,0-4.199-0.857-5.72-2.542c-2.85-3.158-2.601-8.028,0.557-10.879L380.195,274.09
	c3.158-2.851,8.028-2.6,10.879,0.557c2.85,3.158,2.6,8.028-0.558,10.879L141.792,510.015C140.319,511.345,138.474,512,136.634,512z"
	/>
<path style="fill:#781900;" d="M132.667,274.102c-3.154-2.856-8.024-2.617-10.88,0.535c-2.856,3.152-2.617,8.024,0.535,10.88
	l28.416,25.747h22.942L132.667,274.102z"/>
<path style="fill:#891C00;" d="M390.953,274.648c-2.85-3.157-7.721-3.408-10.879-0.557l-41.186,37.173h22.991l28.516-25.737
	C393.553,282.676,393.803,277.806,390.953,274.648z"/>
<polygon style="fill:#FF5023;" points="139.169,26.28 423.602,26.28 423.602,149.183 89.128,149.183 89.128,26.28 "/>
<g>
	<path style="opacity:0.32;fill:#891C00;enable-background:new    ;" d="M393.799,26.28v26.996
		c0,36.508-29.596,66.104-66.104,66.104H89.128v29.803h334.474V26.28H393.799z"/>
	<path style="fill:#891C00;" d="M63.37,243.4V12.879C63.37,5.795,69.166,0,76.249,0l0,0c7.083,0,12.879,5.795,12.879,12.879v235.407
		L63.37,243.4z"/>
</g>
<rect x="63.37" y="211.374" style="fill:#781900;" width="25.757" height="29.998"/>
<path style="fill:#FF5023;" d="M171.699,247.745c95.147,5.147,215.5,0.401,271.66-13.894c14.477-3.685,28.443,7.215,28.386,22.126
	l-0.063,8.233c-36.668,36.668-395.041,38.058-431.427,1.672l0.063-8.233c0.058-14.912,14.109-25.92,28.558-22.347
	c16.186,4.002,37.732,7.167,62.486,9.502L171.699,247.745z"/>
<g>
	<path style="opacity:0.29;fill:#891C00;enable-background:new    ;" d="M41.017,252.084c-0.447,1.775-0.692,3.637-0.699,5.565
		l-0.063,8.233c36.386,36.386,394.758,34.996,431.426-1.672l0.063-8.233c0.007-1.976-0.237-3.879-0.691-5.689
		C431.44,286.149,81.101,287.55,41.017,252.084z"/>
	<path style="fill:#891C00;" d="M135.187,62.178c8.946,0,15.927,4.201,15.927,15.52v18.503c0,11.318-6.98,15.52-15.927,15.52
		h-11.996c-2.305,0-3.864-1.288-3.864-2.711v-44.12c0-1.423,1.559-2.711,3.864-2.711H135.187z M128.138,69.904v34.091h7.048
		c4.473,0,7.116-2.507,7.116-7.794V77.698c0-5.286-2.643-7.795-7.116-7.795H128.138z"/>
	<path style="fill:#891C00;" d="M158.636,64.889c0-1.898,2.169-2.711,4.406-2.711c2.169,0,4.406,0.813,4.406,2.711v44.053
		c0,1.83-2.237,2.779-4.406,2.779c-2.237,0-4.406-0.949-4.406-2.779V64.889z"/>
	<path style="fill:#891C00;" d="M175.581,64.889c0-1.423,1.152-2.711,2.847-2.711h13.42c8.878,0,16.063,3.388,16.063,14.164
		c0,7.795-3.796,11.997-8.879,13.555l8.879,16.469c0.271,0.339,0.339,0.813,0.339,1.086c0,2.237-2.915,4.608-5.49,4.608
		c-1.22,0-2.372-0.746-3.05-2.101l-9.624-18.706h-5.693v17.69c0,1.83-2.169,2.779-4.406,2.779c-2.169,0-4.406-0.949-4.406-2.779
		L175.581,64.889L175.581,64.889z M184.392,69.904V84.34h7.455c4.406,0,7.253-1.829,7.253-7.184s-2.847-7.253-7.253-7.253H184.392z"
		/>
	<path style="fill:#891C00;" d="M223.024,83.459h10.302c1.762,0,2.779,1.693,2.779,3.525c0,1.559-0.881,3.389-2.779,3.389h-10.302
		v13.623h19.18c1.762,0,2.779,1.83,2.779,3.931c0,1.829-0.881,3.795-2.779,3.795h-24.128c-1.966,0-3.863-0.949-3.863-2.779V64.957
		c0-1.829,1.898-2.778,3.863-2.778h24.128c1.898,0,2.779,1.965,2.779,3.795c0,2.101-1.017,3.93-2.779,3.93h-19.18V83.459z"/>
	<path style="fill:#891C00;" d="M265.045,69.904c-4.54,0-7.116,2.508-7.116,7.795v18.909c0,5.286,2.576,7.795,7.252,7.795
		c6.168,0,6.71-4.406,6.913-7.253c0.136-2.101,2.033-2.779,4.338-2.779c3.05,0,4.474,0.881,4.474,4.338
		c0,8.2-6.71,13.419-16.199,13.419c-8.539,0-15.589-4.201-15.589-15.52V77.698c0-11.318,7.117-15.52,15.656-15.52
		c9.421,0,16.131,5.015,16.131,12.876c0,3.525-1.423,4.338-4.406,4.338c-2.507,0-4.338-0.746-4.406-2.778
		C271.958,74.513,271.483,69.904,265.045,69.904z"/>
	<path style="fill:#891C00;" d="M315.062,62.178c1.898,0,2.779,2.032,2.779,3.93c0,2.101-1.017,3.999-2.779,3.999h-9.895v38.834
		c0,1.83-2.237,2.779-4.406,2.779c-2.237,0-4.406-0.949-4.406-2.779V70.107h-9.963c-1.762,0-2.779-1.83-2.779-3.999
		c0-1.898,0.881-3.93,2.779-3.93C286.393,62.178,315.062,62.178,315.062,62.178z"/>
	<path style="fill:#891C00;" d="M321.299,96.607V77.698c0-11.318,6.913-15.52,15.86-15.52c8.946,0,15.926,4.201,15.926,15.52v18.909
		c0,11.318-6.98,15.52-15.926,15.52C328.213,112.127,321.299,107.926,321.299,96.607z M344.275,77.698
		c0-5.355-2.711-7.795-7.116-7.795c-4.474,0-7.049,2.44-7.049,7.795v18.909c0,5.355,2.576,7.795,7.049,7.795
		c4.406,0,7.116-2.44,7.116-7.795V77.698z"/>
	<path style="fill:#891C00;" d="M360.609,64.889c0-1.423,1.152-2.711,2.847-2.711h13.42c8.878,0,16.063,3.388,16.063,14.164
		c0,7.795-3.796,11.997-8.879,13.555l8.879,16.469c0.271,0.339,0.339,0.813,0.339,1.086c0,2.237-2.915,4.608-5.49,4.608
		c-1.22,0-2.372-0.746-3.05-2.101l-9.624-18.706h-5.693v17.69c0,1.83-2.169,2.779-4.406,2.779c-2.169,0-4.406-0.949-4.406-2.779
		L360.609,64.889L360.609,64.889z M369.42,69.904V84.34h7.455c4.406,0,7.253-1.829,7.253-7.184s-2.847-7.253-7.253-7.253H369.42z"/>
</g>
</svg>